<?xml version="1.0" standalone="no"?>
<!DOCTYPE svg PUBLIC "-//W3C//DTD SVG 20010904//EN"
 "http://www.w3.org/TR/2001/REC-SVG-20010904/DTD/svg10.dtd">
<svg version="1.0" xmlns="http://www.w3.org/2000/svg"
 width="300.000000pt" height="266.000000pt" viewBox="0 0 300.000000 266.000000"
 preserveAspectRatio="xMidYMid meet">

<g transform="translate(0.000000,266.000000) scale(0.100000,-0.100000)"
fill="#000000" stroke="none">
<path d="M1425 2654 c-174 -15 -306 -53 -455 -130 -215 -111 -381 -281 -490
-499 -83 -166 -111 -277 -117 -465 -11 -327 88 -595 304 -821 169 -177 350
-280 587 -334 106 -24 106 -23 -1 -44 -44 -9 -60 -7 -121 13 -410 140 -730
530 -806 985 -9 52 -17 96 -19 97 -1 2 -58 4 -126 6 l-123 3 -24 -28 c-21 -24
-24 -38 -24 -100 0 -68 13 -136 39 -201 9 -22 15 -26 23 -18 20 20 47 14 54
-13 8 -34 21 -31 45 10 12 19 24 35 27 35 4 0 16 -28 26 -62 29 -92 108 -248
176 -347 120 -176 306 -344 479 -435 79 -41 79 -42 22 -76 -11 -6 4 -29 64
-99 42 -50 79 -91 80 -91 1 0 32 14 68 30 79 35 125 39 52 4 -27 -13 -54 -26
-60 -28 -18 -7 30 -35 61 -36 35 0 68 30 85 78 6 17 18 33 27 36 58 17 158 26
302 27 199 1 259 -8 497 -72 l43 -11 44 48 c24 27 55 64 70 81 l27 33 -65 32
c-37 18 -65 35 -64 39 2 4 46 35 98 70 238 158 465 452 547 711 10 32 20 58
23 57 3 0 14 -14 25 -31 22 -35 45 -48 45 -26 0 8 6 23 14 33 14 19 15 19 35
1 20 -18 21 -18 30 7 32 84 43 144 39 219 -4 104 -9 108 -144 108 -163 0 -158
3 -173 -93 -38 -244 -160 -489 -335 -674 -104 -111 -213 -191 -345 -256 -96
-47 -111 -52 -166 -49 -33 1 -73 6 -89 10 -28 8 -26 9 35 24 341 84 639 337
773 655 228 544 16 1160 -499 1448 -168 94 -438 154 -620 139z m267 -29 c213
-37 412 -136 572 -286 234 -218 356 -501 356 -822 0 -313 -112 -582 -335 -802
-438 -434 -1145 -431 -1584 6 -228 228 -341 520 -328 844 8 174 38 293 116
450 161 323 456 547 804 610 99 18 297 18 399 0z m-1588 -1237 c31 -45 11
-148 -29 -148 -23 0 -45 42 -45 85 0 43 22 85 45 85 8 0 21 -10 29 -22z m2850
-10 c18 -25 21 -90 6 -117 -28 -54 -80 -18 -80 56 0 72 42 107 74 61z m-205
-119 c28 -8 41 -18 41 -30 0 -13 -7 -17 -27 -16 -19 1 -28 -3 -31 -15 -2 -13
3 -18 17 -18 14 0 21 -6 21 -20 0 -23 0 -23 -65 -2 -53 18 -61 33 -23 42 30 7
35 36 8 43 -14 3 -18 10 -14 22 4 9 12 14 19 11 7 -2 31 -10 54 -17z m-69
-114 c0 -9 -7 -18 -15 -21 -8 -4 -15 -12 -15 -20 0 -22 15 -16 30 11 18 34 63
32 68 -3 4 -28 -23 -72 -43 -72 -20 0 -19 26 0 34 8 3 15 13 15 23 -1 15 -5
13 -23 -9 -42 -51 -91 -25 -68 35 13 34 51 50 51 22z m-53 -97 c-2 -7 -7 -24
-11 -38 -7 -24 -6 -24 8 -6 9 11 16 23 16 28 0 4 7 8 16 8 11 0 14 -5 9 -17
-15 -36 -17 -53 -7 -53 5 0 15 14 22 30 12 30 21 36 33 24 5 -5 -25 -77 -38
-92 -2 -2 -59 22 -103 44 -10 5 33 84 45 84 8 0 13 -6 10 -12z m-2177 -108 c0
-11 -81 -60 -98 -60 -29 0 -8 32 36 54 45 23 62 25 62 6z m2183 -8 c26 -23 22
-48 -19 -110 -2 -3 -83 40 -102 54 -6 4 30 58 47 72 17 14 47 7 74 -16z
m-2147 -47 c9 -14 13 -32 9 -45 -7 -22 -24 -27 -26 -7 -1 6 -2 18 -3 26 0 8
-7 16 -13 18 -10 4 -10 -3 -2 -26 14 -41 6 -61 -25 -61 -28 0 -60 38 -54 66 5
29 26 27 30 -2 2 -15 9 -29 15 -31 10 -4 10 3 2 26 -6 17 -8 38 -5 46 9 24 54
18 72 -10z m2059 -58 c31 -8 50 -19 50 -28 0 -8 -7 -14 -15 -14 -17 0 -34 -22
-35 -47 0 -10 -4 -19 -10 -19 -15 -3 -68 88 -62 106 8 18 9 18 72 2z m-2019
-9 c4 -6 -7 -22 -26 -38 -32 -26 -32 -28 -19 -58 l13 -30 50 19 c43 16 53 17
64 5 12 -11 9 -22 -19 -71 -26 -46 -34 -54 -41 -41 -5 9 -7 20 -4 25 7 10 -21
36 -40 36 -7 0 -29 22 -49 48 -35 46 -36 49 -19 62 11 7 30 22 44 34 29 24 36
25 46 9z m1969 -118 c34 32 41 7 9 -34 l-28 -35 -38 30 c-44 36 -51 45 -43 60
4 6 20 0 42 -17 l34 -26 24 22z m-95 -30 c0 -6 -11 -15 -25 -20 -28 -10 -33
-41 -11 -59 16 -14 46 -4 46 15 0 8 -6 11 -15 8 -20 -8 -19 9 3 29 15 14 19
14 41 -4 23 -19 23 -20 5 -42 -46 -55 -72 -60 -109 -22 -30 29 -31 45 -4 79
20 26 69 37 69 16z m-1731 -24 c10 -11 9 -22 -5 -47 l-17 -33 26 17 c62 40 80
12 31 -48 -30 -35 -41 -42 -51 -33 -11 9 -10 15 9 36 l23 25 -28 -18 c-36 -23
-55 -9 -36 26 l12 24 -22 -19 c-15 -14 -24 -17 -32 -9 -8 8 -1 23 26 52 42 45
47 47 64 27z m1656 -75 c48 -60 39 -74 -32 -56 -27 6 -27 6 -9 -14 12 -13 16
-27 12 -38 -6 -15 -13 -11 -46 27 -22 25 -38 50 -36 55 4 12 41 12 76 1 l25
-8 -24 25 c-12 14 -20 30 -16 36 10 17 18 13 50 -28z m-1558 -17 c5 -14 -67
-95 -78 -88 -15 9 -11 20 24 62 31 39 47 47 54 26z m1457 -71 c48 -30 54 -48
15 -48 -16 0 -28 -9 -37 -27 -7 -16 -17 -28 -22 -28 -11 0 -33 97 -26 115 8
21 18 19 70 -12z m-97 -40 c4 -10 13 -24 20 -32 21 -20 12 -43 -26 -68 -19
-13 -37 -23 -40 -23 -3 0 -18 23 -34 50 l-27 50 32 20 c41 25 67 25 75 3z
m-237 -91 c114 -24 200 -52 286 -94 72 -35 73 -27 -11 -120 l-50 -56 -130 33
c-305 78 -600 71 -840 -20 -38 -14 -77 -29 -86 -31 -11 -4 -37 20 -82 74 -37
44 -67 82 -67 85 0 2 36 21 79 40 96 44 219 81 321 96 41 6 86 13 100 15 66
12 389 -4 480 -22z"/>
<path d="M1210 2485 c-7 -8 -10 -18 -6 -22 3 -3 6 -1 6 6 0 9 8 11 21 8 12 -3
19 -1 16 6 -6 18 -23 19 -37 2z"/>
<path d="M1346 2463 c-6 -14 -5 -15 5 -6 7 7 10 15 7 18 -3 3 -9 -2 -12 -12z"/>
<path d="M1436 2462 c-3 -5 1 -9 9 -9 8 0 12 4 9 9 -3 4 -7 8 -9 8 -2 0 -6 -4
-9 -8z"/>
<path d="M1236 2434 c-5 -14 -4 -15 9 -4 17 14 19 20 6 20 -5 0 -12 -7 -15
-16z"/>
<path d="M1770 2442 c0 -5 7 -15 15 -22 8 -7 15 -9 15 -6 0 4 -7 14 -15 22 -8
9 -15 11 -15 6z"/>
<path d="M1385 2294 c-197 -32 -405 -152 -511 -297 -134 -181 -203 -424 -174
-612 31 -203 145 -398 318 -540 l67 -56 6 188 c4 103 7 307 8 453 1 236 4 270
20 306 10 23 24 45 30 48 6 4 11 24 11 44 0 49 18 113 38 136 10 10 40 33 67
51 73 47 147 116 190 180 21 30 41 55 44 55 4 0 15 -16 26 -36 27 -50 132
-155 201 -200 46 -30 65 -51 87 -93 15 -30 27 -69 27 -86 0 -21 9 -40 26 -56
53 -49 54 -55 55 -381 1 -167 4 -372 8 -456 l6 -154 62 42 c136 91 250 251
295 417 30 111 30 334 0 446 -43 157 -156 329 -288 435 -75 60 -195 121 -289
147 -60 16 -272 28 -330 19z"/>
<path d="M930 2255 c0 -8 2 -15 4 -15 2 0 6 7 10 15 3 8 1 15 -4 15 -6 0 -10
-7 -10 -15z"/>
<path d="M814 2098 l-19 -23 23 19 c21 18 27 26 19 26 -2 0 -12 -10 -23 -22z"/>
<path d="M2245 2082 c11 -10 34 -24 50 -31 l30 -13 -29 31 c-17 17 -39 31 -50
31 -20 0 -20 0 -1 -18z"/>
<path d="M2407 1829 c-9 -6 -23 -7 -30 -3 -8 5 -7 2 2 -9 8 -11 18 -14 25 -8
6 4 18 10 26 13 8 2 10 7 4 10 -5 4 -17 2 -27 -3z"/>
<path d="M1469 1561 c26 -24 61 -28 61 -8 0 8 -6 14 -12 14 -7 0 -26 4 -43 7
l-30 7 24 -20z"/>
<path d="M1551 1458 c-1 -18 -7 -28 -16 -28 -18 0 -20 -20 -2 -20 14 -1 57
-65 57 -85 0 -8 -4 -16 -9 -19 -15 -10 -18 -53 -4 -72 7 -10 13 -36 13 -58 0
-28 3 -36 9 -27 14 22 6 187 -9 206 -8 9 -19 42 -26 73 -7 34 -13 46 -13 30z"/>
<path d="M1418 1459 c-6 -16 5 -95 16 -106 6 -7 10 15 6 32 -2 6 -6 28 -9 50
-4 25 -9 34 -13 24z"/>
<path d="M2442 1375 c-14 -15 -19 -26 -12 -30 6 -4 8 -16 4 -27 -5 -17 -3 -18
13 -10 10 5 24 7 31 5 7 -3 12 3 12 14 0 11 5 24 12 31 9 9 8 12 -5 12 -9 0
-20 6 -24 14 -7 12 -12 11 -31 -9z"/>
<path d="M540 1360 c0 -25 26 -26 39 -2 8 15 5 18 -15 20 -18 1 -24 -3 -24
-18z"/>
<path d="M1381 1315 c0 -11 4 -27 9 -35 9 -13 10 -13 9 0 0 8 -4 24 -9 35 l-9
20 0 -20z"/>
<path d="M1633 1275 c0 -33 2 -45 4 -27 2 18 2 45 0 60 -2 15 -4 0 -4 -33z"/>
<path d="M1419 1290 c-2 -14 1 -54 7 -90 7 -36 12 -59 13 -52 2 19 23 15 63
-13 42 -29 53 -22 62 40 5 36 2 35 -10 -4 -3 -10 -8 -11 -18 -2 -11 9 -15 8
-20 -5 -9 -24 -36 1 -37 35 0 26 0 26 -11 4 -17 -36 -26 -27 -33 35 -8 74 -11
82 -16 52z"/>
<path d="M1772 1270 c0 -14 2 -19 5 -12 2 6 2 18 0 25 -3 6 -5 1 -5 -13z"/>
<path d="M1390 1204 c0 -36 -1 -36 -32 -31 -29 5 -30 4 -11 -5 34 -17 53 -4
53 37 0 19 -2 35 -5 35 -3 0 -5 -16 -5 -36z"/>
<path d="M663 1194 c-6 -15 -2 -29 22 -86 4 -10 3 -18 -3 -18 -5 0 -20 24 -32
53 -13 28 -25 47 -27 40 -2 -7 0 -21 6 -32 15 -26 14 -38 -1 -23 -17 17 -38
15 -38 -4 0 -9 9 -18 20 -21 22 -6 26 -18 9 -28 -15 -10 -49 24 -49 49 0 12
-4 16 -9 11 -5 -6 -11 -40 -13 -77 -3 -67 5 -82 15 -29 5 25 10 29 39 28 28
-2 33 2 38 28 l6 30 17 -32 c9 -17 18 -46 19 -65 3 -28 -1 -33 -21 -36 -18 -3
-22 0 -18 12 4 9 2 16 -2 16 -12 0 -23 -29 -15 -41 3 -5 9 -9 14 -9 5 0 21 -5
37 -11 l28 -11 -34 -29 c-50 -41 -34 -44 26 -4 l50 34 48 -49 c27 -27 46 -52
42 -56 -3 -4 -22 10 -42 30 -30 31 -38 35 -55 26 -11 -6 -20 -19 -20 -29 0
-22 25 -45 39 -37 15 10 1 38 -16 32 -9 -4 -13 -1 -11 6 7 21 32 15 43 -9 5
-13 15 -23 22 -23 20 0 15 -11 -19 -47 -47 -48 -29 -50 25 -2 67 58 95 32 37
-34 -16 -19 -30 -40 -30 -47 0 -7 18 8 41 34 42 47 59 57 59 32 0 -7 7 -19 15
-26 24 -20 18 -39 -11 -37 -35 3 -43 -20 -11 -32 27 -10 39 -33 31 -56 -11
-28 3 -15 37 35 19 27 39 50 46 50 24 0 24 -22 -1 -65 -14 -24 -26 -52 -26
-62 0 -10 15 9 33 42 18 33 38 59 45 57 14 -2 8 34 -12 78 -14 33 -83 67 -99
51 -9 -9 -4 -19 23 -41 19 -16 31 -30 27 -30 -17 0 -97 62 -97 75 0 8 -6 12
-13 9 -16 -6 -115 103 -175 193 -37 54 -41 65 -30 82 10 16 8 27 -7 61 -16 35
-17 43 -4 51 10 6 11 9 1 9 -7 0 -15 -7 -19 -16z m67 -223 c7 -14 7 -22 -1
-26 -11 -8 -40 25 -33 37 9 14 23 9 34 -11z m278 -191 c45 -27 67 -89 27 -73
-8 3 -15 14 -15 25 0 11 -13 26 -30 36 -28 16 -39 32 -22 32 4 0 22 -9 40 -20z
m-29 -54 c9 -10 7 -21 -6 -45 -21 -36 -38 -41 -29 -8 3 12 6 32 6 45 0 25 12
29 29 8z"/>
<path d="M1222 1203 c-10 -4 -10 -8 -1 -19 6 -7 8 -22 5 -31 -6 -15 -5 -16 5
-5 7 6 31 12 54 12 l40 1 -30 26 -30 26 -3 -22 c-4 -25 -28 -23 -26 3 1 9 1
16 0 15 0 0 -7 -3 -14 -6z"/>
<path d="M1641 1137 c-1 -53 -3 -58 -28 -68 -16 -6 -38 -8 -50 -6 -12 2 -20 0
-17 -4 3 -5 21 -9 40 -9 38 0 74 29 74 60 0 17 7 20 39 20 22 0 42 4 46 10 3
5 -13 7 -44 3 -48 -5 -50 -5 -54 23 -2 16 -5 3 -6 -29z"/>
<path d="M2326 1183 c-18 -5 -18 -6 5 -18 21 -12 22 -14 7 -20 -10 -4 -18 -18
-18 -31 0 -12 -6 -27 -13 -31 -7 -4 -31 -35 -53 -69 -64 -97 -117 -155 -134
-149 -12 5 -12 3 -3 -6 9 -9 -5 -25 -64 -70 -42 -33 -70 -59 -63 -59 7 0 29
14 50 30 21 17 43 30 49 30 12 0 -16 -29 -45 -46 -24 -14 -25 -43 -1 -58 12
-8 22 -8 34 0 25 16 27 34 4 34 -13 0 -21 -6 -21 -17 0 -13 -3 -14 -12 -5 -15
15 9 45 33 39 11 -3 16 0 13 8 -12 30 17 22 45 -12 17 -20 33 -34 37 -30 4 3
-12 28 -35 55 -34 42 -39 52 -27 62 18 14 40 4 80 -39 17 -17 34 -31 40 -31 6
0 -11 22 -38 49 -44 44 -47 50 -34 70 17 27 24 27 32 -4 8 -33 59 -59 86 -45
22 12 28 55 8 47 -7 -2 -12 -12 -12 -21 2 -22 -29 -21 -49 2 -19 20 -23 77 -7
87 6 3 24 -3 40 -15 38 -27 50 -19 43 25 -3 19 -3 35 0 35 3 0 22 -10 42 -21
20 -12 38 -19 41 -16 3 3 -5 11 -18 17 -12 7 -30 22 -39 33 -24 30 -49 16 -49
-28 0 -33 -2 -35 -20 -25 -11 6 -20 14 -20 18 0 4 16 34 37 66 l36 58 18 -23
c21 -28 34 -20 44 30 7 31 5 33 -14 28 -11 -3 -21 -1 -21 4 0 19 32 21 70 4
21 -9 44 -15 51 -13 6 2 -16 16 -50 32 -34 15 -59 32 -56 37 6 9 2 10 -29 2z"/>
<path d="M1824 1131 c7 -46 -3 -57 -71 -76 -40 -11 -43 -13 -19 -14 78 -2 166
82 121 115 -31 23 -38 17 -31 -25z"/>
<path d="M1211 1109 c-1 -30 19 -39 84 -38 39 1 39 2 -13 11 -40 7 -55 15 -62
31 -8 21 -9 21 -9 -4z"/>
<path d="M1445 1067 c-15 -12 -17 -19 -10 -36 14 -28 38 -12 33 23 -3 25 -5
26 -23 13z"/>
<path d="M1605 1020 c3 -5 8 -10 11 -10 2 0 4 5 4 10 0 6 -5 10 -11 10 -5 0
-7 -4 -4 -10z"/>
<path d="M1208 990 c2 -16 8 -30 13 -30 5 0 9 14 9 30 0 18 -5 30 -13 30 -9 0
-12 -10 -9 -30z"/>
<path d="M1778 998 c-7 -19 2 -38 18 -38 17 0 18 -18 2 -40 -7 -9 -3 -5 10 8
29 31 27 76 -4 80 -12 2 -24 -3 -26 -10z"/>
<path d="M1280 991 c0 -6 6 -21 13 -32 10 -18 9 -23 -12 -40 -13 -10 -18 -19
-12 -19 16 0 51 38 51 55 0 8 7 15 15 15 8 0 15 5 15 10 0 6 -9 10 -19 10 -11
0 -26 3 -35 6 -9 3 -16 1 -16 -5z"/>
<path d="M1525 966 c-17 -22 -25 -43 -22 -58 4 -22 4 -22 6 3 1 29 39 69 64
69 9 0 17 5 17 10 0 23 -41 8 -65 -24z"/>
<path d="M1685 970 c3 -5 -6 -17 -20 -26 -39 -25 -24 -27 31 -3 42 19 46 23
29 30 -28 11 -47 11 -40 -1z"/>
<path d="M1407 933 c-10 -3 -16 -11 -13 -18 9 -24 -33 -64 -82 -79 -26 -8 -38
-15 -27 -15 33 -1 102 36 116 60 6 13 21 31 33 41 22 18 13 21 -27 11z"/>
<path d="M1718 883 c6 -2 18 -2 25 0 6 3 1 5 -13 5 -14 0 -19 -2 -12 -5z"/>
<path d="M1550 850 c0 -6 7 -13 15 -17 24 -9 27 1 5 15 -13 8 -20 8 -20 2z"/>
<path d="M1947 703 c-12 -11 -7 -41 7 -46 21 -8 50 17 43 37 -6 16 -38 22 -50
9z m33 -18 c0 -8 -4 -15 -10 -15 -5 0 -10 7 -10 15 0 8 5 15 10 15 6 0 10 -7
10 -15z"/>
<path d="M1876 686 c3 -7 -29 -24 -72 -40 -41 -15 -73 -30 -70 -33 3 -3 24 2
47 11 23 9 44 15 46 12 3 -2 -10 -18 -28 -34 -39 -34 -32 -52 20 -52 20 0 42
-5 49 -12 22 -22 23 -1 2 52 -17 43 -18 55 -8 61 22 14 27 11 53 -40 23 -46
45 -73 45 -54 0 4 -14 32 -30 62 -20 37 -27 57 -19 61 6 4 0 9 -14 12 -16 3
-24 1 -21 -6z m-26 -85 c0 -5 3 -17 7 -26 5 -14 2 -16 -18 -10 -32 10 -34 12
-19 30 14 17 30 20 30 6z"/>
<path d="M1155 641 c11 -6 36 -17 55 -24 l35 -14 -47 -7 c-56 -8 -60 -23 -18
-54 17 -13 30 -32 30 -43 0 -33 16 -13 30 38 16 59 22 67 50 58 16 -5 19 -10
11 -18 -6 -6 -11 -29 -11 -50 0 -26 -6 -45 -17 -53 -16 -13 -15 -13 7 -5 21 7
25 15 28 54 4 53 23 77 47 57 12 -10 14 -26 10 -74 -5 -44 -4 -57 4 -46 6 8
11 34 11 57 0 23 6 48 14 56 12 11 11 15 -6 26 -13 8 -18 8 -13 1 7 -12 2 -11
-120 21 -38 10 -81 21 -95 24 -22 5 -23 4 -5 -4z m75 -79 c0 -28 -11 -34 -31
-16 -21 19 -16 34 12 34 12 0 19 -7 19 -18z"/>
<path d="M1975 632 c6 -6 33 -13 60 -17 62 -8 40 9 -25 20 -31 5 -42 4 -35 -3z"/>
<path d="M1550 593 c-25 -3 -49 -8 -54 -13 -6 -6 12 -7 44 -3 39 4 51 3 46 -5
-4 -7 -12 -12 -17 -12 -5 0 -21 -7 -35 -16 -19 -13 -22 -20 -13 -30 6 -8 19
-14 29 -14 9 0 28 -11 41 -24 l24 -24 -3 55 c-4 54 -3 54 18 43 21 -11 21 -12
3 -25 -17 -13 -17 -14 1 -21 24 -9 38 14 24 39 -5 11 -19 22 -29 24 -29 8 -22
21 14 26 27 3 26 4 -8 4 -22 0 -60 -2 -85 -4z m42 -68 c6 -28 4 -29 -23 -14
-16 8 -18 13 -8 25 17 20 26 17 31 -11z"/>
<path d="M1427 574 c-14 -15 -6 -43 14 -49 25 -8 42 6 37 31 -3 19 -38 31 -51
18z m41 -16 c-3 -7 -13 -15 -24 -17 -16 -3 -17 -1 -5 13 16 19 34 21 29 4z"/>
<path d="M1420 500 c0 -5 21 -23 48 -41 l47 -32 -40 42 c-39 41 -55 50 -55 31z"/>
<path d="M2556 905 c-3 -10 5 -20 25 -30 26 -14 30 -14 35 0 8 19 -13 45 -36
45 -10 0 -20 -7 -24 -15z"/>
<path d="M2515 790 c3 -5 8 -10 11 -10 2 0 4 5 4 10 0 6 -5 10 -11 10 -5 0 -7
-4 -4 -10z"/>
<path d="M560 680 c-9 -6 -10 -10 -3 -10 6 0 15 5 18 10 8 12 4 12 -15 0z"/>
<path d="M2070 420 c-8 -5 -12 -12 -9 -15 8 -8 39 5 39 16 0 11 -11 11 -30 -1z"/>
<path d="M2091 381 c-10 -6 -10 -10 -1 -16 7 -4 19 0 28 9 14 13 14 16 2 16
-8 0 -21 -4 -29 -9z"/>
<path d="M1560 265 c0 -25 5 -45 10 -45 6 0 10 14 10 30 0 17 3 30 6 30 3 0
17 -13 31 -30 36 -44 53 -39 53 15 0 25 -4 45 -10 45 -5 0 -10 -13 -10 -30 0
-16 -4 -30 -9 -30 -5 0 -19 14 -31 30 -32 45 -50 39 -50 -15z"/>
<path d="M1435 260 c-17 -38 -14 -70 5 -41 5 10 20 12 49 8 23 -3 41 -3 41 -1
0 16 -48 74 -61 74 -9 0 -24 -17 -34 -40z m49 4 c9 -23 8 -24 -14 -24 -11 0
-20 2 -20 4 0 12 13 36 20 36 4 0 11 -7 14 -16z"/>
<path d="M1707 263 c-5 -43 10 -71 19 -35 8 28 12 28 46 -5 34 -33 50 -22 18
12 -13 14 -22 27 -19 28 2 2 13 10 24 16 19 12 19 12 -2 7 -13 -3 -33 -9 -45
-13 -17 -5 -20 -3 -15 10 4 11 1 17 -7 17 -8 0 -16 -15 -19 -37z"/>
<path d="M1289 272 c-12 -6 -13 -15 -7 -48 l9 -42 42 10 c54 12 59 17 51 56
-6 29 -10 32 -43 31 -20 0 -43 -3 -52 -7z m71 -12 c0 -11 -48 -25 -56 -17 -4
3 -3 10 1 16 8 14 55 14 55 1z m6 -31 c3 -6 0 -15 -7 -20 -22 -13 -49 -11 -49
5 0 13 13 20 42 25 4 0 10 -4 14 -10z"/>
<path d="M1831 98 c31 -61 78 -74 141 -42 38 20 30 27 -54 48 -93 22 -102 22
-87 -6z"/>
</g>
</svg>
